<?xml version="1.0" standalone="no"?><!DOCTYPE svg PUBLIC "-//W3C//DTD SVG 1.1//EN" "http://www.w3.org/Graphics/SVG/1.1/DTD/svg11.dtd"><svg t="1657002998118" class="icon" viewBox="0 0 1024 1024" version="1.1" xmlns="http://www.w3.org/2000/svg" p-id="1796" xmlns:xlink="http://www.w3.org/1999/xlink" width="200" height="200"><defs><style type="text/css">@font-face { font-family: feedback-iconfont; src: url("//at.alicdn.com/t/font_1031158_u69w8yhxdu.woff2?t=1630033759944") format("woff2"), url("//at.alicdn.com/t/font_1031158_u69w8yhxdu.woff?t=1630033759944") format("woff"), url("//at.alicdn.com/t/font_1031158_u69w8yhxdu.ttf?t=1630033759944") format("truetype"); }
</style></defs><path d="M512 989.866667C249.173333 989.866667 34.133333 774.826667 34.133333 512S249.173333 34.133333 512 34.133333s477.866667 215.04 477.866667 477.866667-215.04 477.866667-477.866667 477.866667z m0-904.533334C276.48 85.333333 85.333333 276.48 85.333333 512s191.146667 426.666667 426.666667 426.666667 426.666667-191.146667 426.666667-426.666667S747.52 85.333333 512 85.333333z" fill="#333333" p-id="1797"></path><path d="M406.186667 426.666667c-5.12 0-10.24-1.706667-15.36-5.12l-95.573334-68.266667c-11.946667-8.533333-13.653333-23.893333-5.12-35.84 8.533333-11.946667 23.893333-13.653333 35.84-5.12l95.573334 68.266667c11.946667 8.533333 13.653333 23.893333 5.12 35.84-3.413333 5.12-11.946667 10.24-20.48 10.24z" fill="#333333" p-id="1798"></path><path d="M310.613333 491.52c-8.533333 0-15.36-3.413333-20.48-11.946667-8.533333-11.946667-5.12-27.306667 6.826667-35.84l97.28-66.56c11.946667-8.533333 27.306667-5.12 35.84 6.826667s5.12 27.306667-6.826667 35.84l-98.986666 68.266667c-5.12 3.413333-10.24 3.413333-13.653334 3.413333zM617.813333 426.666667c-8.533333 0-15.36-3.413333-20.48-10.24-8.533333-11.946667-5.12-27.306667 5.12-35.84l95.573334-68.266667c11.946667-8.533333 27.306667-5.12 35.84 5.12 8.533333 11.946667 5.12 27.306667-5.12 35.84l-95.573334 68.266667c-5.12 3.413333-10.24 5.12-15.36 5.12z" fill="#333333" p-id="1799"></path><path d="M713.386667 491.52c-5.12 0-10.24-1.706667-13.653334-5.12l-97.28-66.56c-11.946667-8.533333-15.36-23.893333-6.826666-35.84 8.533333-11.946667 23.893333-15.36 35.84-6.826667l97.28 66.56c11.946667 8.533333 15.36 23.893333 6.826666 35.84-5.12 8.533333-13.653333 11.946667-22.186666 11.946667z" fill="#333333" p-id="1800"></path><path d="M517.12 655.36c-105.813333 0-184.32-35.84-189.44-37.546667-13.653333-6.826667-18.773333-20.48-11.946667-34.133333 6.826667-13.653333 20.48-18.773333 34.133334-11.946667 1.706667 1.706667 160.426667 71.68 327.68 0 13.653333-5.12 27.306667 0 34.133333 13.653334s0 27.306667-13.653333 34.133333c-64.853333 27.306667-126.293333 35.84-180.906667 35.84z" fill="#333333" p-id="1801"></path><path d="M503.466667 808.96c-29.013333 0-52.906667-10.24-69.973334-29.013333-47.786667-49.493333-35.84-143.36-35.84-153.6 1.706667-13.653333 15.36-23.893333 29.013334-22.186667 13.653333 1.706667 23.893333 15.36 22.186666 29.013333-3.413333 22.186667-5.12 85.333333 22.186667 110.933334 6.826667 6.826667 17.066667 13.653333 40.96 11.946666h3.413333s22.186667 0 37.546667-17.066666c18.773333-20.48 25.6-58.026667 22.186667-107.52-1.706667-13.653333 8.533333-27.306667 23.893333-27.306667 13.653333-1.706667 27.306667 8.533333 27.306667 23.893333 6.826667 66.56-5.12 117.76-35.84 148.48-29.013333 30.72-64.853333 32.426667-75.093334 32.426667h-11.946666z" fill="#333333" p-id="1802"></path></svg>